HIERARCHY
ROOT Hips
{
	OFFSET -3.958830 18.904000 13.208200
	CHANNELS 6 Xposition Yposition Zposition Zrotation Yrotation Xrotation 
	JOINT LHipJoint
	{
		OFFSET 0.000000 0.000000 0.000000
		CHANNELS 3 Zrotation Yrotation Xrotation
		JOINT LeftUpLeg
		{
			OFFSET 1.800000 -1.400000 0.085000
			CHANNELS 3 Zrotation Yrotation Xrotation
			JOINT LeftLeg
			{
				OFFSET 2.215000 -6.000000 0.000000
				CHANNELS 3 Zrotation Yrotation Xrotation
				JOINT LeftFoot
				{
					OFFSET 2.500000 -6.900000 0.000000
					CHANNELS 3 Zrotation Yrotation Xrotation
					JOINT LeftToeBase
					{
						OFFSET 0.200000 -0.500000 1.950000
						CHANNELS 3 Zrotation Yrotation Xrotation
						End Site
						{
							OFFSET 0.000000 0.000000 0.000000
						}
					}
				}
			}
		}
	}
	JOINT RHipJoint
	{
		OFFSET 0.000000 0.000000 0.000000
		CHANNELS 3 Zrotation Yrotation Xrotation
		JOINT RightUpLeg
		{
			OFFSET -1.800000 -1.400000 0.085000
			CHANNELS 3 Zrotation Yrotation Xrotation
			JOINT RightLeg
			{
				OFFSET -2.215000 -6.000000 0.000000
				CHANNELS 3 Zrotation Yrotation Xrotation
				JOINT RightFoot
				{
					OFFSET -2.500000 -6.900000 0.000000
					CHANNELS 3 Zrotation Yrotation Xrotation
					JOINT RightToeBase
					{
						OFFSET -0.200000 -0.500000 1.950000
						CHANNELS 3 Zrotation Yrotation Xrotation
						End Site
						{
							OFFSET 0.000000 0.000000 0.000000
						}
					}
				}
			}
		}
	}
	JOINT LowerBack
	{
		OFFSET 0.000000 0.000000 0.000000
		CHANNELS 3 Zrotation Yrotation Xrotation
		JOINT Spine
		{
			OFFSET -0.087000 1.940000 -0.288900
			CHANNELS 3 Zrotation Yrotation Xrotation
			JOINT Spine1
			{
				OFFSET 0.000000 1.950000 0.060000
				CHANNELS 3 Zrotation Yrotation Xrotation
				JOINT Neck
				{
					OFFSET 0.000000 0.000000 0.000000
					CHANNELS 3 Zrotation Yrotation Xrotation
					JOINT Neck1
					{
						OFFSET 0.000000 1.600000 0.340000
						CHANNELS 3 Zrotation Yrotation Xrotation
						JOINT Head
						{
							OFFSET 0.000000 1.667000 -0.240000
							CHANNELS 3 Zrotation Yrotation Xrotation
							End Site
							{
								OFFSET 0.000000 0.000000 0.000000
							}
						}
					}
				}
				JOINT LeftShoulder
				{
					OFFSET 0.000000 0.000000 0.000000
					CHANNELS 3 Zrotation Yrotation Xrotation
					JOINT LeftArm
					{
						OFFSET 2.700000 1.550000 -0.730000
						CHANNELS 3 Zrotation Yrotation Xrotation
						JOINT LeftForeArm
						{
							OFFSET 5.450000 0.000000 0.000000
							CHANNELS 3 Zrotation Yrotation Xrotation
							JOINT LeftHand
							{
								OFFSET 3.450000 0.000000 0.000000
								CHANNELS 3 Zrotation Yrotation Xrotation
								JOINT LeftHandIndex1
								{
									OFFSET 0.750000 0.000000 0.000000
									CHANNELS 3 Zrotation Yrotation Xrotation
									End Site
									{
										OFFSET 0.000000 0.000000 0.000000
									}
								}
							}
						}
					}
				}
				JOINT RightShoulder
				{
					OFFSET 0.000000 0.000000 0.000000
					CHANNELS 3 Zrotation Yrotation Xrotation
					JOINT RightArm
					{
						OFFSET -2.700000 1.550000 -0.730000
						CHANNELS 3 Zrotation Yrotation Xrotation
						JOINT RightForeArm
						{
							OFFSET -5.450000 0.000000 0.000000
							CHANNELS 3 Zrotation Yrotation Xrotation
							JOINT RightHand
							{
								OFFSET -3.450000 0.000000 0.000000
								CHANNELS 3 Zrotation Yrotation Xrotation
								JOINT RightHandIndex1
								{
									OFFSET -0.750000 0.000000 0.000000
									CHANNELS 3 Zrotation Yrotation Xrotation
									End Site
									{
										OFFSET 0.000000 0.000000 0.000000
									}
								}
							}
						}
					}
				}
			}
		}
	}
}
MOTION
Frames: 5
Frame Time: 0.016667
-20.868760 16.470500 -6.287210 172.515239 85.151721 -176.043797 -15.950665 11.613134 4.112564 10.394062 -7.267094 3.271929 -27.345922 5.407928 -1.463657 -3.229236 5.780328 0.086447 -0.323320 0.549590 1.003250 17.970652 -7.865171 3.956896 11.139498 6.280894 -50.638138 10.978296 -1.205016 0.368830 0.177611 0.667373 2.438900 1.034100 -2.571080 -2.264210 -1.322683 -3.247241 -8.999845 -5.427679 -9.142692 1.906083 9.990718 -8.883039 8.656472 -1.813478 -13.250591 -7.569866 -9.232330 -65.010467 9.205434 -102.398840 -37.125100 -12.421330 -54.277155 -28.475671 2.048866 -6.639941 -19.387926 -5.318973 14.758831 -29.708377 -3.785571 -3.101081 1.589053 1.232110 -1.860440 0.043270 -2.908020 63.714249 27.681555 18.076247 25.148416 -26.368515 -6.748730 -8.720495 18.059693 -2.382219 1.841603 0.413944 -1.140400 1.373060 2.332840 -1.643470 
-20.698890 16.414980 -6.303110 176.839919 86.002938 -172.256778 -15.919917 11.522520 4.176389 10.535268 -7.389745 4.888722 -28.632957 5.819373 -1.072907 -3.157649 5.925209 0.029425 -0.303490 0.617750 0.968430 17.976721 -8.015357 4.029418 12.202550 6.856453 -50.751236 11.144815 -1.711946 3.854805 0.167907 0.705454 2.471541 1.057380 -2.573290 -2.344190 -1.539515 -2.817554 -9.104665 -4.850116 -8.120991 2.486808 10.003065 -7.972635 8.521707 -1.382520 -13.238813 -8.024219 -10.290366 -65.708359 10.531550 -102.359910 -39.190650 -13.044520 -55.091146 -29.382992 2.276531 -6.345363 -19.904031 -5.345118 12.678079 -25.227971 -3.187752 -3.006244 1.470566 1.262840 -1.937310 0.066360 -2.879830 63.838389 28.512245 18.019165 25.631600 -28.626827 -6.516928 -8.180204 18.215558 -2.345183 1.898434 0.453693 -1.150730 1.456290 2.309890 -1.590570 
-20.521350 16.369510 -6.335390 -171.333535 86.801927 -160.745375 -15.887001 11.335168 4.331244 10.601987 -7.512073 6.612584 -30.740878 5.779668 -1.993294 -3.089918 6.144854 -0.090124 -0.378970 0.631660 0.803950 17.997387 -8.087682 4.129249 13.976725 7.819421 -50.955024 9.713452 -2.121054 7.933037 0.191522 0.738151 2.468249 1.082220 -2.529190 -2.407370 -1.991720 -2.437363 -9.285185 -3.042491 -7.743575 3.070688 9.559431 -7.717488 8.372996 -0.895118 -13.610237 -8.876388 -11.316375 -67.081733 10.943053 -101.669360 -41.934290 -13.812330 -55.299836 -29.546526 2.924232 -6.663441 -19.385311 -5.343335 12.067185 -21.246883 -3.073890 -2.985187 1.351704 1.266670 -1.985740 0.067020 -2.883830 63.062807 29.410115 18.013587 25.194492 -29.924710 -6.485146 -5.974052 18.764732 -2.191792 1.886218 0.513879 -1.186130 1.549740 2.385470 -1.507520 
-20.322290 16.342700 -6.357840 -146.564358 87.279273 -136.461389 -15.733399 10.986454 4.580750 10.982651 -7.945524 8.710252 -34.460191 5.399705 -3.847165 -2.948970 6.429442 -0.243946 -0.525260 0.625170 0.573530 18.148373 -8.161889 4.156133 14.590081 8.354928 -50.544774 10.677649 -2.943342 11.933065 0.193775 0.529846 2.401537 1.087030 -2.483640 -2.556290 -2.567066 -1.873879 -9.489448 -0.579153 -7.495013 3.540973 8.562322 -7.638403 9.259237 -0.397448 -13.748881 -10.483949 -14.157080 -66.999670 13.715407 -100.269510 -45.608900 -15.844860 -55.047433 -30.191281 4.069732 -7.247338 -18.208530 -5.440735 12.679888 -17.976609 -3.073869 -2.914471 1.150236 1.281520 -2.078350 0.074410 -2.898190 61.601058 30.964700 18.466041 28.585048 -28.367876 -5.320541 -12.319732 14.663349 -2.055466 2.149186 0.908242 -1.258880 1.707890 2.477840 -1.393660 
-20.080710 16.345590 -6.353000 -99.014034 87.274662 -89.858062 -15.632896 10.780898 4.863163 11.143842 -7.785799 11.251966 -39.457481 4.737399 -6.616923 -2.746942 6.712802 -0.380070 -0.577840 0.691850 0.444070 18.295050 -7.944295 4.191471 15.512864 9.350197 -48.878774 10.328946 -3.401184 15.681132 0.185262 0.346528 2.358743 1.123630 -2.490880 -2.692940 -3.003141 -0.993224 -9.773117 1.290437 -6.326544 3.835234 7.852834 -6.727883 10.921325 0.244545 -13.549961 -12.865446 -18.708782 -65.759811 19.154129 -97.584460 -48.650800 -17.804590 -54.612546 -30.939860 5.434931 -8.821468 -16.596383 -5.329509 12.712026 -15.497910 -2.948585 -2.774086 1.027791 1.288640 -2.172530 0.090820 -2.899370 59.923569 32.969237 19.028747 30.555574 -26.173431 -3.938040 -14.664813 10.210632 -1.456057 2.303796 1.117684 -1.291160 1.788440 2.464180 -1.310730 
